<svg width="28" height="22" viewBox="0 0 28 22" fill="none" xmlns="http://www.w3.org/2000/svg">
<path d="M2 10H14V12H2V10ZM0 5H10V7H0V5Z" fill="black"/>
<path d="M27.9191 10.606L24.9191 3.606C24.842 3.42616 24.7138 3.27288 24.5505 3.16516C24.3871 3.05745 24.1958 3.00002 24.0001 3H21.0001V1C21.0001 0.734784 20.8947 0.48043 20.7072 0.292893C20.5197 0.105357 20.2653 0 20.0001 0H4.00009V2H19.0001V14.556C18.5447 14.8209 18.1461 15.1732 17.8273 15.5926C17.5084 16.0121 17.2756 16.4903 17.1421 17H10.8581C10.6147 16.0573 10.0359 15.2358 9.23008 14.6894C8.4243 14.143 7.4469 13.9092 6.48109 14.0319C5.51528 14.1546 4.62736 14.6253 3.98377 15.3558C3.34018 16.0863 2.98511 17.0264 2.98511 18C2.98511 18.9736 3.34018 19.9137 3.98377 20.6442C4.62736 21.3747 5.51528 21.8454 6.48109 21.9681C7.4469 22.0908 8.4243 21.857 9.23008 21.3106C10.0359 20.7642 10.6147 19.9427 10.8581 19H17.1421C17.3596 19.8582 17.8571 20.6194 18.5559 21.1632C19.2546 21.7069 20.1147 22.0021 21.0001 22.0021C21.8855 22.0021 22.7456 21.7069 23.4443 21.1632C24.1431 20.6194 24.6406 19.8582 24.8581 19H27.0001C27.2653 19 27.5197 18.8946 27.7072 18.7071C27.8947 18.5196 28.0001 18.2652 28.0001 18V11C28.0001 10.8645 27.9725 10.7305 27.9191 10.606ZM7.00009 20C6.60453 20 6.21785 19.8827 5.88895 19.6629C5.56005 19.4432 5.30371 19.1308 5.15233 18.7654C5.00096 18.3999 4.96135 17.9978 5.03852 17.6098C5.11569 17.2219 5.30617 16.8655 5.58588 16.5858C5.86558 16.3061 6.22195 16.1156 6.60991 16.0384C6.99787 15.9613 7.4 16.0009 7.76546 16.1522C8.13091 16.3036 8.44327 16.56 8.66303 16.8889C8.88279 17.2178 9.00009 17.6044 9.00009 18C9.00009 18.5304 8.78938 19.0391 8.4143 19.4142C8.03923 19.7893 7.53052 20 7.00009 20ZM21.0001 5H23.3401L25.4841 10H21.0001V5ZM21.0001 20C20.6045 20 20.2178 19.8827 19.889 19.6629C19.5601 19.4432 19.3037 19.1308 19.1523 18.7654C19.001 18.3999 18.9614 17.9978 19.0385 17.6098C19.1157 17.2219 19.3062 16.8655 19.5859 16.5858C19.8656 16.3061 20.2219 16.1156 20.6099 16.0384C20.9979 15.9613 21.4 16.0009 21.7655 16.1522C22.1309 16.3036 22.4433 16.56 22.663 16.8889C22.8828 17.2178 23.0001 17.6044 23.0001 18C23.0001 18.5304 22.7894 19.0391 22.4143 19.4142C22.0392 19.7893 21.5305 20 21.0001 20ZM26.0001 17H24.8581C24.6378 16.1434 24.1395 15.3842 23.4413 14.8413C22.7431 14.2983 21.8845 14.0025 21.0001 14V12H26.0001V17Z" fill="black"/>
</svg>
