<svg width="23" height="34" viewBox="0 0 23 34" fill="none" xmlns="http://www.w3.org/2000/svg">
<path fill-rule="evenodd" clip-rule="evenodd" d="M19.1111 3.224C17.1033 1.21718 14.3923 0.0718901 11.5538 0.03125H11.4463C8.60738 0.0701835 5.89564 1.21527 3.888 3.22291C1.88037 5.23055 0.73528 7.94229 0.696347 10.7812C0.661409 12.7969 1.22847 14.7776 2.32497 16.4707L10.7852 33.625H12.2177L20.6752 16.4707C21.7744 14.7776 22.3415 12.7969 22.3038 10.7812C22.2632 7.94275 21.1179 5.23184 19.1111 3.224ZM11.2985 2.71875L11.5189 2.74563L11.7178 2.71875C13.829 2.8107 15.8248 3.70793 17.2948 5.22599C18.7649 6.74406 19.5976 8.76761 19.6217 10.8807C19.6423 12.3804 19.2044 13.8506 18.3667 15.0947L18.3129 15.1861L18.2672 15.2801L11.5001 28.9998L4.73566 15.2936L4.68997 15.1887L4.63622 15.0974C3.79848 13.8533 3.3606 12.3831 3.38116 10.8834C3.40408 8.76786 4.23773 6.74175 5.71029 5.22269C7.18284 3.70363 9.18206 2.80741 11.2958 2.71875H11.2985ZM12.9433 8.54794C12.6498 8.35171 12.3206 8.2152 11.9744 8.14622C11.6282 8.07723 11.2717 8.07711 10.9255 8.14586C10.5792 8.21461 10.2499 8.35089 9.9563 8.54692C9.66271 8.74295 9.4106 8.99488 9.21438 9.28834C9.01815 9.5818 8.88164 9.91104 8.81265 10.2573C8.74367 10.6035 8.74355 10.9599 8.8123 11.3061C8.88105 11.6524 9.01733 11.9817 9.21336 12.2753C9.40939 12.5689 9.66132 12.821 9.95478 13.0172C10.5475 13.4135 11.2733 13.5582 11.9726 13.4193C12.6719 13.2805 13.2874 12.8695 13.6837 12.2768C14.08 11.6842 14.2246 10.9584 14.0858 10.259C13.9469 9.55974 13.5359 8.94424 12.9433 8.54794ZM8.46322 6.31194C9.04961 5.89974 9.71253 5.60898 10.413 5.45678C11.1134 5.30459 11.8372 5.29402 12.5418 5.42571C13.2463 5.55739 13.9175 5.82867 14.5156 6.22358C15.1138 6.61849 15.627 7.12905 16.0249 7.72522C16.4228 8.32139 16.6975 8.99113 16.8327 9.69503C16.968 10.3989 16.9611 11.1228 16.8124 11.824C16.6637 12.5252 16.3763 13.1895 15.9671 13.778C15.5579 14.3665 15.0351 14.8671 14.4295 15.2506C13.244 16.0011 11.8121 16.2583 10.4395 15.9673C9.06695 15.6764 7.86258 14.8602 7.08365 13.6932C6.30472 12.5262 6.01299 11.1009 6.27076 9.72172C6.52853 8.34254 7.31537 7.11881 8.46322 6.31194Z" fill="black"/>
</svg>
