<svg width="26" height="28" viewBox="0 0 26 28" fill="none" xmlns="http://www.w3.org/2000/svg">
<path d="M24.2125 6.75201L13.9 1.10943C13.6245 0.957179 13.3148 0.877319 13 0.877319C12.6852 0.877319 12.3755 0.957179 12.1 1.10943L1.7875 6.75435C1.49299 6.91549 1.24715 7.15274 1.07565 7.44133C0.904141 7.72992 0.813262 8.05927 0.8125 8.39497V19.6028C0.813262 19.9385 0.904141 20.2678 1.07565 20.5564C1.24715 20.845 1.49299 21.0823 1.7875 21.2434L12.1 26.8883C12.3755 27.0406 12.6852 27.1204 13 27.1204C13.3148 27.1204 13.6245 27.0406 13.9 26.8883L24.2125 21.2434C24.507 21.0823 24.7528 20.845 24.9244 20.5564C25.0959 20.2678 25.1867 19.9385 25.1875 19.6028V8.39615C25.1874 8.05984 25.0968 7.72976 24.9252 7.4405C24.7537 7.15123 24.5075 6.91343 24.2125 6.75201ZM13 2.75005L22.4148 7.9063L18.9262 9.81646L9.51016 4.66021L13 2.75005ZM13 13.0626L3.58516 7.9063L7.55781 5.7313L16.9727 10.8876L13 13.0626ZM2.6875 9.54693L12.0625 14.6774V24.7309L2.6875 19.604V9.54693ZM23.3125 19.5993L13.9375 24.7309V14.6821L17.6875 12.6301V16.8126C17.6875 17.0612 17.7863 17.2997 17.9621 17.4755C18.1379 17.6513 18.3764 17.7501 18.625 17.7501C18.8736 17.7501 19.1121 17.6513 19.2879 17.4755C19.4637 17.2997 19.5625 17.0612 19.5625 16.8126V11.6036L23.3125 9.54693V19.5981V19.5993Z" fill="black"/>
</svg>
