<svg width="21" height="20" viewBox="0 0 21 20" fill="none" xmlns="http://www.w3.org/2000/svg">
<path d="M15.375 0.5C15.5483 0.5 15.7097 0.565906 15.8252 0.675781C15.9399 0.785002 16 0.927875 16 1.07129V3.35742H19.5C19.7729 3.35742 20.0299 3.46067 20.2158 3.6377C20.4008 3.81393 20.5 4.04796 20.5 4.28613V18.5713C20.5 18.8095 20.4009 19.0435 20.2158 19.2197C20.03 19.3967 19.7728 19.5 19.5 19.5H1.5C1.22718 19.5 0.970044 19.3967 0.78418 19.2197C0.599135 19.0435 0.5 18.8095 0.5 18.5713V4.28613C0.5 4.04796 0.599152 3.81393 0.78418 3.6377C0.946792 3.48283 1.16393 3.38455 1.39844 3.3623L1.5 3.35742H5V1.07129L5.01074 0.964844C5.03283 0.85887 5.08865 0.757835 5.1748 0.675781C5.29033 0.565907 5.45173 0.5 5.625 0.5C5.79827 0.5 5.95967 0.565907 6.0752 0.675781C6.18988 0.785002 6.24996 0.927874 6.25 1.07129V3.35742H14.75V1.07129C14.75 0.927875 14.8101 0.785002 14.9248 0.675781C15.0403 0.565906 15.2017 0.5 15.375 0.5ZM1.75 18.3574H19.25V8.78613H1.75V18.3574ZM15 11.9287C15.2729 11.9287 15.5299 12.032 15.7158 12.209C15.9009 12.3852 16 12.6192 16 12.8574C15.9999 13.0954 15.9007 13.3287 15.7158 13.5049C15.5299 13.6819 15.2729 13.7861 15 13.7861C14.7271 13.7861 14.4701 13.6819 14.2842 13.5049C14.0993 13.3287 14.0001 13.0954 14 12.8574C14 12.6192 14.0991 12.3852 14.2842 12.209C14.4701 12.032 14.7271 11.9287 15 11.9287ZM1.75 7.64258H19.25V4.5H1.75V7.64258Z" fill="black" stroke="black"/>
</svg>
